HIERARCHY
ROOT Hips
{
  OFFSET 48.9666 100.591 19.7655
  CHANNELS 6 Xposition Yposition Zposition Zrotation Xrotation Yrotation
  JOINT spine
  {
    OFFSET 0 8.81704 0.507024
    CHANNELS 3 Zrotation Xrotation Yrotation
    JOINT spine1
    {
      OFFSET 0 10.7766 0
      CHANNELS 3 Zrotation Xrotation Yrotation
      JOINT spine2
      {
        OFFSET 0 10.3259 0
        CHANNELS 3 Zrotation Xrotation Yrotation
        JOINT Neck
        {
          OFFSET 0 26.511 1.26395
          CHANNELS 3 Zrotation Xrotation Yrotation
          JOINT Head
          {
            OFFSET 0 8.00966 0
            CHANNELS 3 Zrotation Xrotation Yrotation
            End Site
            {
              OFFSET 0 19.3879 -6.39386
            }
          }
        }
        JOINT RightShoulder
        {
          OFFSET -4.34795 11.1512 -0.605422
          CHANNELS 3 Zrotation Xrotation Yrotation
          JOINT RightArm
          {
            OFFSET 0 14.6258 0
            CHANNELS 3 Zrotation Xrotation Yrotation
            JOINT RightArmRoll
            {
              OFFSET 0 7.3834 0
              CHANNELS 3 Zrotation Xrotation Yrotation
              JOINT RightForeArm
              {
                OFFSET 0 21.5052 0
                CHANNELS 3 Zrotation Xrotation Yrotation
                JOINT RightForeArmRoll
                {
                  OFFSET 0 8.28532 0
                  CHANNELS 3 Zrotation Xrotation Yrotation
                  JOINT RightHand
                  {
                    OFFSET 0 16.6268 0
                    CHANNELS 3 Zrotation Xrotation Yrotation
                    End Site
                    {
                      OFFSET 0 0 0
                    }
                  }
                }
              }
            }
          }
        }
        JOINT LeftShoulder
        {
          OFFSET 4.34795 11.1512 -0.605422
          CHANNELS 3 Zrotation Xrotation Yrotation
          JOINT LeftArm
          {
            OFFSET 0 14.6258 0
            CHANNELS 3 Zrotation Xrotation Yrotation
            JOINT LeftArmRoll
            {
              OFFSET 0 7.3834 0
              CHANNELS 3 Zrotation Xrotation Yrotation
              JOINT LeftForeArm
              {
                OFFSET 0 21.5052 0
                CHANNELS 3 Zrotation Xrotation Yrotation
                JOINT LeftForeArmRoll
                {
                  OFFSET 0 8.28532 0
                  CHANNELS 3 Zrotation Xrotation Yrotation
                  JOINT LeftHand
                  {
                    OFFSET 0 16.6268 0
                    CHANNELS 3 Zrotation Xrotation Yrotation
                    End Site
                    {
                      OFFSET 0 0 0
                    }
                  }
                }
              }
            }
          }
        }
      }
    }
  }
  JOINT RightUpLeg
  {
    OFFSET -7.8151 -1.43309 -1.20217
    CHANNELS 3 Zrotation Xrotation Yrotation
    JOINT RightUpLegRoll
    {
      OFFSET 0 19.4959 0
      CHANNELS 3 Zrotation Xrotation Yrotation
      JOINT RightLeg
      {
        OFFSET 0 -24.1427 0
        CHANNELS 3 Zrotation Xrotation Yrotation
        JOINT RightLegRoll
        {
          OFFSET 0 24.2217 0
          CHANNELS 3 Zrotation Xrotation Yrotation
          JOINT RightFoot
          {
            OFFSET 0 20.1605 0
            CHANNELS 3 Zrotation Xrotation Yrotation
            JOINT RightToeBase
            {
              OFFSET 0 16.8532 0
              CHANNELS 3 Zrotation Xrotation Yrotation
              End Site
              {
                OFFSET 0.00714343 8.16187 -0.940781
              }
            }
          }
        }
      }
    }
  }
  JOINT LeftUpLeg
  {
    OFFSET 7.8151 -1.43309 -1.20217
    CHANNELS 3 Zrotation Xrotation Yrotation
    JOINT LeftUpLegRoll
    {
      OFFSET 0 19.496 0
      CHANNELS 3 Zrotation Xrotation Yrotation
      JOINT LeftLeg
      {
        OFFSET 0 24.1426 0
        CHANNELS 3 Zrotation Xrotation Yrotation
        JOINT LeftLegRoll
        {
          OFFSET 0 24.4456 0
          CHANNELS 3 Zrotation Xrotation Yrotation
          JOINT LeftFoot
          {
            OFFSET 0 19.9366 0
            CHANNELS 3 Zrotation Xrotation Yrotation
            JOINT LeftToeBase
            {
              OFFSET 0 16.8532 0
              CHANNELS 3 Zrotation Xrotation Yrotation
              End Site
              {
                OFFSET -0.0320138 8.16187 -0.94078
              }
            }
          }
        }
      }
    }
  }
}
MOTION
Frames: 9
Frame Time: 0.00208333
49.0333 100.683 20.5196 0.348504 -5.25384 1.6401 0.0816211 -2.23336 -0.0735195 0.163887 -0.465029 -0.142402 0.165676 1.18004 -0.145168 -4.98996 22.2429 1.9539 -7.91581 -6.08526 -0.913349 65.8834 -3.83502 -2.93461 119.738 26.3808 -58.5495 0 0 -3.18055e-015 -135.217 74.5212 118.783 1.83492e-005 -5.15292e-007 -3.00093 8.02898 -4.95143 0.697676 -59.8271 -4.47033 2.85978 -123.98 37.7856 46.5933 -3.56704e-005 2.4648e-007 -1.58255e-006 76.8216 87.2559 -69.9905 3.52308e-006 -8.27879e-007 3 -8.02885 -4.95146 -0.697677 177.078 -5.14034 0.505947 180 7.01518e-015 178.802 178.893 6.90421 179.685 -5.31032e-007 -5.43449e-006 0.141566 -19.943 69.4697 20.8529 8.14937 25.4516 -3.19073 -176.376 -4.23797 1.56162 4.54188e-006 -4.6773e-006 -1.19419 -2.20639 -6.86105 0.155654 -2.10086e-006 -8.76278e-006 -0.104986 19.1929 68.5703 -20.0121 -8.15315 25.4783 3.15548 
49.0191 100.666 20.5209 0.342499 -5.24794 1.64416 0.0819475 -2.23768 -0.0743659 0.164779 -0.473732 -0.144561 0.166601 1.17134 -0.14734 -4.95159 22.3434 1.95198 -7.96992 -6.19998 -0.923957 65.859 -3.87315 -2.95307 119.651 26.4245 -58.2988 -6.36111e-015 -1.27222e-014 -9.54166e-015 -135.341 74.5395 118.946 1.83492e-005 -5.15292e-007 -3.00093 8.02898 -4.95143 0.697676 -59.8181 -4.45874 2.85212 -123.781 37.7503 46.3707 -3.56704e-005 2.4648e-007 -1.58255e-006 76.6687 87.2447 -69.841 3.52308e-006 -8.27879e-007 3 -8.02885 -4.95146 -0.697677 177.09 -5.13748 0.497685 180 7.01518e-015 178.802 178.898 6.90076 179.685 -5.31032e-007 -5.43449e-006 0.141608 -19.9411 69.4677 20.8508 8.14943 25.4525 -3.18966 -176.367 -4.22964 1.5583 4.54188e-006 -4.6773e-006 -1.19419 -2.20522 -6.86649 0.155647 -2.10086e-006 -8.76278e-006 -0.105054 19.1966 68.5746 -20.0162 -8.1532 25.479 3.15455 
49.031 100.667 20.5198 0.336482 -5.24132 1.64827 0.0822229 -2.24229 -0.0751609 0.165542 -0.482958 -0.146607 0.167394 1.16211 -0.149398 -4.9114 22.4434 1.94955 -8.02458 -6.31053 -0.934266 65.8354 -3.91077 -2.97133 119.561 26.4687 -58.0431 3.18055e-015 -1.27222e-014 3.18055e-015 -135.473 74.5555 119.116 1.83492e-005 -5.15292e-007 -3.00092 8.02898 -4.95143 0.697676 -59.809 -4.44563 2.84352 -123.581 37.7149 46.1425 -3.56704e-005 2.4648e-007 -1.58255e-006 76.5093 87.2341 -69.6857 3.52308e-006 -8.27879e-007 3 -8.02885 -4.95146 -0.697677 177.101 -5.13365 0.489434 180 7.01518e-015 178.802 178.903 6.89759 179.684 -5.31032e-007 -5.43449e-006 0.141649 -19.9392 69.4658 20.8488 8.1495 25.4535 -3.18859 -176.358 -4.22036 1.55493 4.54188e-006 -4.6773e-006 -1.19419 -2.20421 -6.87205 0.155612 -2.10086e-006 -8.76278e-006 -0.105121 19.2003 68.5788 -20.0202 -8.15324 25.4796 3.15373 
49.0262 100.683 20.5208 0.330495 -5.23399 1.65235 0.0824476 -2.24712 -0.075887 0.166171 -0.492557 -0.148491 0.168051 1.15251 -0.151292 -4.86958 22.5409 1.94655 -8.07923 -6.4149 -0.944068 65.8127 -3.94763 -2.98926 119.466 26.513 -57.782 3.18055e-015 -6.36111e-015 3.18055e-015 -135.615 74.5676 119.295 1.83492e-005 -5.15292e-007 -3.00092 8.02898 -4.95143 0.697676 -59.7991 -4.43145 2.83422 -123.381 37.6804 45.9075 -3.56704e-005 2.4648e-007 -1.58255e-006 76.3461 87.2247 -69.5279 3.52308e-006 -8.27879e-007 3 -8.02885 -4.95146 -0.697677 177.113 -5.12885 0.481292 180 7.01518e-015 178.802 178.908 6.89475 179.683 -5.31032e-007 -5.43449e-006 0.141691 -19.9373 69.464 20.8467 8.14956 25.4544 -3.18752 -176.349 -4.2102 1.55154 4.54188e-006 -4.6773e-006 -1.1942 -2.2034 -6.8777 0.15555 -2.10086e-006 -8.76278e-006 -0.105187 19.2039 68.5829 -20.0241 -8.15328 25.4802 3.15301 
49.0075 100.674 20.517 0.324582 -5.22599 1.65638 0.082622 -2.25209 -0.076527 0.166661 -0.502381 -0.150162 0.168566 1.14269 -0.152969 -4.82635 22.6338 1.94294 -8.13331 -6.51103 -0.953155 65.7908 -3.9835 -3.00674 119.369 26.5567 -57.515 6.36111e-015 9.54166e-015 6.36111e-015 -135.769 74.5744 119.482 1.83492e-005 -5.15292e-007 -3.00092 8.02898 -4.95143 0.697676 -59.7882 -4.41664 2.82444 -123.183 37.6478 45.6642 -3.56704e-005 2.4648e-007 -1.58255e-006 76.1817 87.217 -69.3707 3.52308e-006 -8.27879e-007 3 -8.02885 -4.95146 -0.697677 177.124 -5.12309 0.473358 180 7.01518e-015 178.802 178.912 6.89228 179.683 -5.31032e-007 -5.43449e-006 0.141732 -19.9354 69.4621 20.8447 8.14962 25.4553 -3.18646 -176.341 -4.19918 1.54816 4.54188e-006 -4.6773e-006 -1.1942 -2.2028 -6.88342 0.155456 -2.10086e-006 -8.76278e-006 -0.105251 19.2075 68.5869 -20.028 -8.15331 25.4806 3.15238 
49.0113 100.675 20.5179 0.318788 -5.21736 1.66029 0.0827466 -2.25714 -0.0770633 0.167008 -0.51228 -0.15157 0.168934 1.13279 -0.154381 -4.78191 22.7203 1.93867 -8.18625 -6.5969 -0.961318 65.7698 -4.01816 -3.02365 119.267 26.5992 -57.2418 9.54166e-015 6.36111e-015 6.36111e-015 -135.937 74.5744 119.679 1.83492e-005 -5.15292e-007 -3.00092 8.02898 -4.95143 0.697676 -59.7759 -4.40163 2.81442 -122.989 37.6181 45.4115 -3.56704e-005 2.4648e-007 -1.58255e-006 76.0183 87.2114 -69.2166 3.52308e-006 -8.27879e-007 3 -8.02885 -4.95146 -0.697677 177.134 -5.11637 0.46573 180 7.01518e-015 178.802 178.916 6.89023 179.682 -5.31032e-007 -5.43449e-006 0.141773 -19.9336 69.4604 20.8428 8.14968 25.4562 -3.18542 -176.332 -4.18735 1.54482 4.54188e-006 -4.6773e-006 -1.1942 -2.20243 -6.88918 0.15533 -2.10086e-006 -8.76278e-006 -0.105314 19.2109 68.5908 -20.0317 -8.15334 25.481 3.15186 
49.0022 100.676 20.5287 0.313154 -5.20813 1.66404 0.0828218 -2.2622 -0.0774788 0.167209 -0.522106 -0.152664 0.169152 1.12297 -0.155477 -4.73646 22.7983 1.93369 -8.2375 -6.67047 -0.968348 65.7496 -4.05137 -3.03985 119.162 26.64 -56.962 6.36111e-015 0 -1.27222e-014 -136.122 74.566 119.888 1.83492e-005 -5.15292e-007 -3.00092 8.02898 -4.95143 0.697676 -59.7616 -4.38687 2.80439 -122.801 37.5923 45.1478 -3.56704e-005 2.4648e-007 -1.58255e-006 75.8585 87.2085 -69.0687 3.52308e-006 -8.27879e-007 3 -8.02885 -4.95146 -0.697677 177.144 -5.10867 0.458508 180 7.01518e-015 178.802 178.92 6.88869 179.682 -5.31032e-007 -5.43449e-006 0.141815 -19.9319 69.4587 20.841 8.14974 25.457 -3.18438 -176.325 -4.17474 1.54155 4.54188e-006 -4.6773e-006 -1.1942 -2.20232 -6.89496 0.155169 -2.10086e-006 -8.76278e-006 -0.105375 19.2141 68.5945 -20.0352 -8.15336 25.4813 3.15142 
49.0082 100.677 20.5282 0.307727 -5.19833 1.66758 0.0828479 -2.2672 -0.0777559 0.16726 -0.531708 -0.153396 0.169213 1.11336 -0.156207 -4.69022 22.8658 1.92796 -8.28649 -6.72971 -0.974036 65.7302 -4.0829 -3.05523 119.053 26.6785 -56.6752 0 0 -6.36111e-015 -136.324 74.5477 120.108 1.83492e-005 -5.15292e-007 -3.00092 8.02898 -4.95143 0.697676 -59.7451 -4.37278 2.79457 -122.62 37.5713 44.872 -3.56704e-005 2.4648e-007 -1.58255e-006 75.7045 87.2089 -68.9295 3.52308e-006 -8.27879e-007 3 -8.02885 -4.95146 -0.697677 177.153 -5.10001 0.451789 180 7.01518e-015 178.802 178.924 6.88768 179.681 -5.31032e-007 -5.43449e-006 0.141856 -19.9304 69.4572 20.8393 8.14979 25.4578 -3.18336 -176.317 -4.1614 1.53839 4.54188e-006 -4.6773e-006 -1.19421 -2.20248 -6.90074 0.154972 -2.10086e-006 -8.76278e-006 -0.105436 19.2172 68.5979 -20.0386 -8.15337 25.4815 3.15107 
49.009 100.676 20.525 0.30231 -5.18722 1.67114 0.0827908 -2.27256 -0.0778962 0.167088 -0.541874 -0.15378 0.169047 1.1032 -0.156584 -4.64069 22.9274 1.92107 -8.33563 -6.77713 -0.978742 65.7126 -4.11347 -3.07023 118.939 26.7139 -56.3833 3.18055e-015 9.54166e-015 1.27222e-014 -136.545 74.5184 120.339 1.83492e-005 -5.15292e-007 -3.00092 8.02898 -4.95143 0.697676 -59.7266 -4.35716 2.78366 -122.443 37.5527 44.5814 -3.56704e-005 2.4648e-007 -1.58255e-006 75.5559 87.2122 -68.7985 3.52308e-006 -8.27879e-007 3 -8.02885 -4.95146 -0.697677 177.161 -5.08962 0.445278 180 7.01518e-015 178.802 178.927 6.88721 179.681 -5.31032e-007 -5.43449e-006 0.141897 -19.9288 69.4556 20.8377 8.14985 25.4586 -3.18233 -176.31 -4.14636 1.53518 4.54188e-006 -4.6773e-006 -1.19421 -2.20301 -6.90678 0.154718 -2.10086e-006 -8.76278e-006 -0.105495 19.2202 68.6013 -20.0418 -8.15338 25.4817 3.15086 
